<mxfile host="app.diagrams.net" modified="2023-04-26T13:59:00.534Z" agent="Mozilla/5.0 (Windows NT 10.0; Win64; x64) AppleWebKit/537.36 (KHTML, like Gecko) Chrome/112.0.0.0 Safari/537.36" etag="mmpkJT4r5WsJ-9_sFsPJ" version="21.2.2" type="google">
  <diagram name="Page-1" id="yZcz5Cf9vPAC3mTqod18">
    <mxGraphModel grid="1" page="1" gridSize="10" guides="1" tooltips="1" connect="1" arrows="1" fold="1" pageScale="1" pageWidth="827" pageHeight="1169" math="0" shadow="0">
      <root>
        <mxCell id="0" />
        <mxCell id="1" parent="0" />
        <mxCell id="-LxrJKY9AagjrxQRI4nE-21" value="Rezervacija&amp;nbsp;" style="swimlane;childLayout=stackLayout;horizontal=1;startSize=50;horizontalStack=0;rounded=1;fontSize=14;fontStyle=0;strokeWidth=2;resizeParent=0;resizeLast=1;shadow=0;dashed=0;align=center;arcSize=4;whiteSpace=wrap;html=1;" vertex="1" parent="1">
          <mxGeometry x="337" y="280" width="160" height="120" as="geometry" />
        </mxCell>
        <mxCell id="-LxrJKY9AagjrxQRI4nE-23" value="Datum za rezervaciju&amp;nbsp;&lt;br style=&quot;border-color: var(--border-color); text-align: left;&quot;&gt;&lt;span style=&quot;text-align: left;&quot;&gt;Popis gostiju&lt;/span&gt;" style="text;html=1;align=center;verticalAlign=middle;resizable=0;points=[];autosize=1;strokeColor=none;fillColor=none;" vertex="1" parent="-LxrJKY9AagjrxQRI4nE-21">
          <mxGeometry y="50" width="160" height="70" as="geometry" />
        </mxCell>
        <mxCell id="-LxrJKY9AagjrxQRI4nE-24" value="Web-stranica" style="swimlane;childLayout=stackLayout;horizontal=1;startSize=50;horizontalStack=0;rounded=1;fontSize=14;fontStyle=0;strokeWidth=2;resizeParent=0;resizeLast=1;shadow=0;dashed=0;align=center;arcSize=4;whiteSpace=wrap;html=1;" vertex="1" parent="1">
          <mxGeometry x="25" y="900" width="160" height="120" as="geometry" />
        </mxCell>
        <mxCell id="-LxrJKY9AagjrxQRI4nE-25" value="Url:" style="align=left;strokeColor=none;fillColor=none;spacingLeft=4;fontSize=12;verticalAlign=top;resizable=0;rotatable=0;part=1;html=1;" vertex="1" parent="-LxrJKY9AagjrxQRI4nE-24">
          <mxGeometry y="50" width="160" height="70" as="geometry" />
        </mxCell>
        <mxCell id="-LxrJKY9AagjrxQRI4nE-26" value="" style="swimlane;childLayout=stackLayout;horizontal=1;startSize=50;horizontalStack=0;rounded=1;fontSize=14;fontStyle=0;strokeWidth=2;resizeParent=0;resizeLast=1;shadow=0;dashed=0;align=center;arcSize=4;whiteSpace=wrap;html=1;" vertex="1" parent="-LxrJKY9AagjrxQRI4nE-24">
          <mxGeometry y="120" width="160" as="geometry" />
        </mxCell>
        <mxCell id="-LxrJKY9AagjrxQRI4nE-28" value="Kontakt" style="swimlane;childLayout=stackLayout;horizontal=1;startSize=50;horizontalStack=0;rounded=1;fontSize=14;fontStyle=0;strokeWidth=2;resizeParent=0;resizeLast=1;shadow=0;dashed=0;align=center;arcSize=4;whiteSpace=wrap;html=1;" vertex="1" parent="1">
          <mxGeometry x="334" y="20" width="160" height="120" as="geometry" />
        </mxCell>
        <mxCell id="-LxrJKY9AagjrxQRI4nE-29" value="Broj mobitela:Int&lt;br&gt;Adresa:&lt;br&gt;E-mail:String" style="align=left;strokeColor=none;fillColor=none;spacingLeft=4;fontSize=12;verticalAlign=top;resizable=0;rotatable=0;part=1;html=1;" vertex="1" parent="-LxrJKY9AagjrxQRI4nE-28">
          <mxGeometry y="50" width="160" height="70" as="geometry" />
        </mxCell>
        <mxCell id="-LxrJKY9AagjrxQRI4nE-30" value="Plaćanje" style="swimlane;childLayout=stackLayout;horizontal=1;startSize=50;horizontalStack=0;rounded=1;fontSize=14;fontStyle=0;strokeWidth=2;resizeParent=0;resizeLast=1;shadow=0;dashed=0;align=center;arcSize=4;whiteSpace=wrap;html=1;" vertex="1" parent="1">
          <mxGeometry x="-20" y="430" width="160" height="120" as="geometry" />
        </mxCell>
        <mxCell id="-LxrJKY9AagjrxQRI4nE-32" value="Gotovina&lt;br&gt;Kartično plaćanje" style="text;html=1;align=center;verticalAlign=middle;resizable=0;points=[];autosize=1;strokeColor=none;fillColor=none;" vertex="1" parent="-LxrJKY9AagjrxQRI4nE-30">
          <mxGeometry y="50" width="160" height="70" as="geometry" />
        </mxCell>
        <mxCell id="-LxrJKY9AagjrxQRI4nE-33" value="Sadržaj objekta" style="swimlane;childLayout=stackLayout;horizontal=1;startSize=50;horizontalStack=0;rounded=1;fontSize=14;fontStyle=0;strokeWidth=2;resizeParent=0;resizeLast=1;shadow=0;dashed=0;align=center;arcSize=4;whiteSpace=wrap;html=1;" vertex="1" parent="1">
          <mxGeometry x="620" y="480" width="160" height="180" as="geometry" />
        </mxCell>
        <mxCell id="-LxrJKY9AagjrxQRI4nE-35" value="Kuhinja&lt;br style=&quot;border-color: var(--border-color); text-align: left;&quot;&gt;&lt;span style=&quot;text-align: left;&quot;&gt;Blagovaonica&lt;/span&gt;&lt;br style=&quot;border-color: var(--border-color); text-align: left;&quot;&gt;Dnevni boravak&lt;br&gt;&lt;span style=&quot;text-align: left;&quot;&gt;Broj spavaćih soba&lt;br&gt;&lt;/span&gt;Kupaonica&lt;br&gt;Okućnica&lt;br&gt;&lt;span style=&quot;text-align: left;&quot;&gt;&lt;br&gt;&lt;/span&gt;" style="text;html=1;align=center;verticalAlign=middle;resizable=0;points=[];autosize=1;strokeColor=none;fillColor=none;" vertex="1" parent="-LxrJKY9AagjrxQRI4nE-33">
          <mxGeometry y="50" width="160" height="130" as="geometry" />
        </mxCell>
        <mxCell id="-LxrJKY9AagjrxQRI4nE-38" value="Recenzije" style="swimlane;childLayout=stackLayout;horizontal=1;startSize=50;horizontalStack=0;rounded=1;fontSize=14;fontStyle=0;strokeWidth=2;resizeParent=0;resizeLast=1;shadow=0;dashed=0;align=center;arcSize=4;whiteSpace=wrap;html=1;" vertex="1" parent="1">
          <mxGeometry x="25" y="760" width="160" height="120" as="geometry" />
        </mxCell>
        <mxCell id="-LxrJKY9AagjrxQRI4nE-39" value="Ocjena rezidencije:&lt;br&gt;" style="align=left;strokeColor=none;fillColor=none;spacingLeft=4;fontSize=12;verticalAlign=top;resizable=0;rotatable=0;part=1;html=1;" vertex="1" parent="-LxrJKY9AagjrxQRI4nE-38">
          <mxGeometry y="50" width="160" height="70" as="geometry" />
        </mxCell>
        <mxCell id="-LxrJKY9AagjrxQRI4nE-40" value="Izgled objekta" style="swimlane;childLayout=stackLayout;horizontal=1;startSize=50;horizontalStack=0;rounded=1;fontSize=14;fontStyle=0;strokeWidth=2;resizeParent=0;resizeLast=1;shadow=0;dashed=0;align=center;arcSize=4;whiteSpace=wrap;html=1;" vertex="1" parent="1">
          <mxGeometry x="620" y="730" width="160" height="120" as="geometry" />
        </mxCell>
        <mxCell id="-LxrJKY9AagjrxQRI4nE-41" value="Crtež kuće" style="align=left;strokeColor=none;fillColor=none;spacingLeft=4;fontSize=12;verticalAlign=top;resizable=0;rotatable=0;part=1;html=1;" vertex="1" parent="-LxrJKY9AagjrxQRI4nE-40">
          <mxGeometry y="50" width="160" height="70" as="geometry" />
        </mxCell>
        <mxCell id="5K6nGovVW4pk06RMs3e8-24" style="edgeStyle=orthogonalEdgeStyle;rounded=0;orthogonalLoop=1;jettySize=auto;html=1;exitX=1;exitY=0.3333333333333333;exitDx=0;exitDy=0;exitPerimeter=0;entryX=0;entryY=0.25;entryDx=0;entryDy=0;" edge="1" parent="1" source="5K6nGovVW4pk06RMs3e8-11" target="-LxrJKY9AagjrxQRI4nE-29">
          <mxGeometry relative="1" as="geometry" />
        </mxCell>
        <mxCell id="5K6nGovVW4pk06RMs3e8-11" value="Gost" style="shape=umlActor;verticalLabelPosition=bottom;verticalAlign=top;html=1;" vertex="1" parent="1">
          <mxGeometry x="90" y="210" width="50" height="60" as="geometry" />
        </mxCell>
        <mxCell id="5K6nGovVW4pk06RMs3e8-18" value="" style="ellipse;html=1;shape=startState;fillColor=#000000;strokeColor=#ff0000;" vertex="1" parent="1">
          <mxGeometry x="90" y="30" width="30" height="30" as="geometry" />
        </mxCell>
        <mxCell id="5K6nGovVW4pk06RMs3e8-19" value="" style="edgeStyle=orthogonalEdgeStyle;html=1;verticalAlign=bottom;endArrow=open;endSize=8;strokeColor=#ff0000;rounded=0;" edge="1" parent="1" source="5K6nGovVW4pk06RMs3e8-18">
          <mxGeometry relative="1" as="geometry">
            <mxPoint x="105" y="120" as="targetPoint" />
          </mxGeometry>
        </mxCell>
        <mxCell id="5K6nGovVW4pk06RMs3e8-22" style="edgeStyle=orthogonalEdgeStyle;rounded=0;orthogonalLoop=1;jettySize=auto;html=1;exitX=0.5;exitY=1;exitDx=0;exitDy=0;" edge="1" parent="1" source="5K6nGovVW4pk06RMs3e8-21" target="5K6nGovVW4pk06RMs3e8-11">
          <mxGeometry relative="1" as="geometry" />
        </mxCell>
        <mxCell id="5K6nGovVW4pk06RMs3e8-21" value="Start" style="html=1;whiteSpace=wrap;" vertex="1" parent="1">
          <mxGeometry x="50" y="120" width="110" height="50" as="geometry" />
        </mxCell>
        <mxCell id="5K6nGovVW4pk06RMs3e8-41" style="edgeStyle=orthogonalEdgeStyle;rounded=0;orthogonalLoop=1;jettySize=auto;html=1;" edge="1" parent="1" source="5K6nGovVW4pk06RMs3e8-39" target="-LxrJKY9AagjrxQRI4nE-29">
          <mxGeometry relative="1" as="geometry" />
        </mxCell>
        <mxCell id="5K6nGovVW4pk06RMs3e8-42" style="edgeStyle=orthogonalEdgeStyle;rounded=0;orthogonalLoop=1;jettySize=auto;html=1;" edge="1" parent="1" source="5K6nGovVW4pk06RMs3e8-39" target="-LxrJKY9AagjrxQRI4nE-21">
          <mxGeometry relative="1" as="geometry" />
        </mxCell>
        <mxCell id="5K6nGovVW4pk06RMs3e8-39" value="Admin&lt;br&gt;" style="shape=umlActor;verticalLabelPosition=bottom;verticalAlign=top;html=1;" vertex="1" parent="1">
          <mxGeometry x="400" y="180" width="34" height="60" as="geometry" />
        </mxCell>
        <mxCell id="5K6nGovVW4pk06RMs3e8-43" value="Cijene i popusti" style="swimlane;childLayout=stackLayout;horizontal=1;startSize=50;horizontalStack=0;rounded=1;fontSize=14;fontStyle=0;strokeWidth=2;resizeParent=0;resizeLast=1;shadow=0;dashed=0;align=center;arcSize=4;whiteSpace=wrap;html=1;" vertex="1" parent="1">
          <mxGeometry x="650" y="300" width="160" height="120" as="geometry" />
        </mxCell>
        <mxCell id="5K6nGovVW4pk06RMs3e8-44" value="Zimsko razdoblje&lt;br&gt;Ljetno razdoblje&lt;br&gt;Dostupnost objekta&lt;br&gt;" style="align=left;strokeColor=none;fillColor=none;spacingLeft=4;fontSize=12;verticalAlign=top;resizable=0;rotatable=0;part=1;html=1;" vertex="1" parent="5K6nGovVW4pk06RMs3e8-43">
          <mxGeometry y="50" width="160" height="70" as="geometry" />
        </mxCell>
        <mxCell id="5K6nGovVW4pk06RMs3e8-45" value="" style="shape=umlActor;verticalLabelPosition=bottom;verticalAlign=top;html=1;" vertex="1" parent="5K6nGovVW4pk06RMs3e8-43">
          <mxGeometry y="120" width="160" as="geometry" />
        </mxCell>
        <mxCell id="5K6nGovVW4pk06RMs3e8-46" value="" style="shape=umlActor;verticalLabelPosition=bottom;verticalAlign=top;html=1;" vertex="1" parent="5K6nGovVW4pk06RMs3e8-43">
          <mxGeometry y="120" width="160" as="geometry" />
        </mxCell>
        <mxCell id="5K6nGovVW4pk06RMs3e8-47" value="" style="shape=umlActor;verticalLabelPosition=bottom;verticalAlign=top;html=1;" vertex="1" parent="5K6nGovVW4pk06RMs3e8-43">
          <mxGeometry y="120" width="160" as="geometry" />
        </mxCell>
        <mxCell id="5K6nGovVW4pk06RMs3e8-48" value="" style="shape=umlActor;verticalLabelPosition=bottom;verticalAlign=top;html=1;" vertex="1" parent="5K6nGovVW4pk06RMs3e8-43">
          <mxGeometry y="120" width="160" as="geometry" />
        </mxCell>
        <mxCell id="5K6nGovVW4pk06RMs3e8-54" style="edgeStyle=orthogonalEdgeStyle;rounded=0;orthogonalLoop=1;jettySize=auto;html=1;entryX=0.444;entryY=1.043;entryDx=0;entryDy=0;entryPerimeter=0;" edge="1" parent="1" source="-LxrJKY9AagjrxQRI4nE-35" target="-LxrJKY9AagjrxQRI4nE-23">
          <mxGeometry relative="1" as="geometry" />
        </mxCell>
        <mxCell id="5K6nGovVW4pk06RMs3e8-70" style="edgeStyle=orthogonalEdgeStyle;rounded=0;orthogonalLoop=1;jettySize=auto;html=1;exitX=0.5;exitY=0;exitDx=0;exitDy=0;entryX=0.2;entryY=1;entryDx=0;entryDy=0;entryPerimeter=0;" edge="1" parent="1" source="5K6nGovVW4pk06RMs3e8-65" target="-LxrJKY9AagjrxQRI4nE-23">
          <mxGeometry relative="1" as="geometry" />
        </mxCell>
        <mxCell id="5K6nGovVW4pk06RMs3e8-71" style="edgeStyle=orthogonalEdgeStyle;rounded=0;orthogonalLoop=1;jettySize=auto;html=1;exitX=0;exitY=0.5;exitDx=0;exitDy=0;entryX=1;entryY=0.5;entryDx=0;entryDy=0;" edge="1" parent="1" source="5K6nGovVW4pk06RMs3e8-65" target="5K6nGovVW4pk06RMs3e8-66">
          <mxGeometry relative="1" as="geometry" />
        </mxCell>
        <mxCell id="5K6nGovVW4pk06RMs3e8-80" style="edgeStyle=orthogonalEdgeStyle;rounded=0;orthogonalLoop=1;jettySize=auto;html=1;exitX=1;exitY=0.5;exitDx=0;exitDy=0;entryX=0;entryY=0.5;entryDx=0;entryDy=0;" edge="1" parent="1" source="5K6nGovVW4pk06RMs3e8-65" target="5K6nGovVW4pk06RMs3e8-68">
          <mxGeometry relative="1" as="geometry" />
        </mxCell>
        <mxCell id="5K6nGovVW4pk06RMs3e8-65" value="Rezervacija uspješna" style="rhombus;whiteSpace=wrap;html=1;" vertex="1" parent="1">
          <mxGeometry x="280" y="440" width="80" height="80" as="geometry" />
        </mxCell>
        <mxCell id="5K6nGovVW4pk06RMs3e8-72" style="edgeStyle=orthogonalEdgeStyle;rounded=0;orthogonalLoop=1;jettySize=auto;html=1;exitX=0;exitY=0.5;exitDx=0;exitDy=0;entryX=1;entryY=0.5;entryDx=0;entryDy=0;entryPerimeter=0;" edge="1" parent="1" source="5K6nGovVW4pk06RMs3e8-66" target="-LxrJKY9AagjrxQRI4nE-32">
          <mxGeometry relative="1" as="geometry" />
        </mxCell>
        <mxCell id="5K6nGovVW4pk06RMs3e8-66" value="Da" style="html=1;whiteSpace=wrap;" vertex="1" parent="1">
          <mxGeometry x="185" y="470" width="60" height="20" as="geometry" />
        </mxCell>
        <mxCell id="5K6nGovVW4pk06RMs3e8-81" style="edgeStyle=orthogonalEdgeStyle;rounded=0;orthogonalLoop=1;jettySize=auto;html=1;exitX=0.5;exitY=1;exitDx=0;exitDy=0;entryX=0.436;entryY=-0.08;entryDx=0;entryDy=0;entryPerimeter=0;" edge="1" parent="1" source="5K6nGovVW4pk06RMs3e8-68" target="5K6nGovVW4pk06RMs3e8-79">
          <mxGeometry relative="1" as="geometry" />
        </mxCell>
        <mxCell id="5K6nGovVW4pk06RMs3e8-68" value="Ne" style="html=1;whiteSpace=wrap;" vertex="1" parent="1">
          <mxGeometry x="460" y="465" width="70" height="20" as="geometry" />
        </mxCell>
        <mxCell id="5K6nGovVW4pk06RMs3e8-74" style="edgeStyle=orthogonalEdgeStyle;rounded=0;orthogonalLoop=1;jettySize=auto;html=1;entryX=0.013;entryY=0.371;entryDx=0;entryDy=0;entryPerimeter=0;" edge="1" parent="1" source="-LxrJKY9AagjrxQRI4nE-23" target="5K6nGovVW4pk06RMs3e8-44">
          <mxGeometry relative="1" as="geometry" />
        </mxCell>
        <mxCell id="5K6nGovVW4pk06RMs3e8-76" style="edgeStyle=orthogonalEdgeStyle;rounded=0;orthogonalLoop=1;jettySize=auto;html=1;entryX=0.5;entryY=0;entryDx=0;entryDy=0;" edge="1" parent="1" source="-LxrJKY9AagjrxQRI4nE-35" target="-LxrJKY9AagjrxQRI4nE-40">
          <mxGeometry relative="1" as="geometry" />
        </mxCell>
        <mxCell id="5K6nGovVW4pk06RMs3e8-79" value="Prikaz:Rezervacija neuspješna" style="html=1;whiteSpace=wrap;" vertex="1" parent="1">
          <mxGeometry x="450" y="670" width="110" height="50" as="geometry" />
        </mxCell>
        <mxCell id="5K6nGovVW4pk06RMs3e8-85" style="edgeStyle=orthogonalEdgeStyle;rounded=0;orthogonalLoop=1;jettySize=auto;html=1;exitX=0.5;exitY=1;exitDx=0;exitDy=0;entryX=0.5;entryY=0;entryDx=0;entryDy=0;" edge="1" parent="1" source="5K6nGovVW4pk06RMs3e8-82" target="-LxrJKY9AagjrxQRI4nE-38">
          <mxGeometry relative="1" as="geometry" />
        </mxCell>
        <mxCell id="5K6nGovVW4pk06RMs3e8-82" value="Povijest rezervacija" style="html=1;whiteSpace=wrap;" vertex="1" parent="1">
          <mxGeometry x="240" y="650" width="110" height="50" as="geometry" />
        </mxCell>
        <mxCell id="5K6nGovVW4pk06RMs3e8-83" style="edgeStyle=orthogonalEdgeStyle;rounded=0;orthogonalLoop=1;jettySize=auto;html=1;entryX=0;entryY=0.75;entryDx=0;entryDy=0;" edge="1" parent="1" source="-LxrJKY9AagjrxQRI4nE-32" target="5K6nGovVW4pk06RMs3e8-82">
          <mxGeometry relative="1" as="geometry" />
        </mxCell>
        <mxCell id="5K6nGovVW4pk06RMs3e8-84" value="" style="ellipse;html=1;shape=endState;fillColor=#000000;strokeColor=#ff0000;" vertex="1" parent="1">
          <mxGeometry x="80" y="1070" width="30" height="30" as="geometry" />
        </mxCell>
        <mxCell id="5K6nGovVW4pk06RMs3e8-86" style="edgeStyle=orthogonalEdgeStyle;rounded=0;orthogonalLoop=1;jettySize=auto;html=1;exitX=0.5;exitY=1;exitDx=0;exitDy=0;entryX=0.5;entryY=0;entryDx=0;entryDy=0;" edge="1" parent="1" source="-LxrJKY9AagjrxQRI4nE-39" target="-LxrJKY9AagjrxQRI4nE-24">
          <mxGeometry relative="1" as="geometry" />
        </mxCell>
        <mxCell id="5K6nGovVW4pk06RMs3e8-87" style="edgeStyle=orthogonalEdgeStyle;rounded=0;orthogonalLoop=1;jettySize=auto;html=1;exitX=0.5;exitY=1;exitDx=0;exitDy=0;entryX=0.5;entryY=0;entryDx=0;entryDy=0;" edge="1" parent="1" source="-LxrJKY9AagjrxQRI4nE-25" target="5K6nGovVW4pk06RMs3e8-84">
          <mxGeometry relative="1" as="geometry" />
        </mxCell>
      </root>
    </mxGraphModel>
  </diagram>
</mxfile>
